<?xml version="1.0" encoding="UTF-8"?>
<!DOCTYPE svg PUBLIC "-//W3C//DTD SVG 1.1//EN" "http://www.w3.org/Graphics/SVG/1.1/DTD/svg11.dtd">
<!-- Creator: CorelDRAW X7 -->
<svg xmlns="http://www.w3.org/2000/svg" xml:space="preserve" width="3.05965in" height="0.873in" version="1.1" style="shape-rendering:geometricPrecision; text-rendering:geometricPrecision; image-rendering:optimizeQuality; fill-rule:evenodd; clip-rule:evenodd"
viewBox="0 0 1332 380"
 xmlns:xlink="http://www.w3.org/1999/xlink">
 <defs>
  <style type="text/css">
   <![CDATA[
    .fil0 {fill:black}
   ]]>
  </style>
 </defs>
 <g id="Layer_x0020_1">
  <metadata id="CorelCorpID_0Corel-Layer"/>
  <path class="fil0" d="M530 244c0,0 -1,0 -1,0l-32 0c-1,0 -1,0 -1,0l0 -4c0,0 0,0 1,0l5 0c2,0 2,-1 2,-2l0 -34c0,-14 0,-24 0,-29 -1,-2 -1,-2 -1,-2 -1,0 -1,0 -1,1 -3,4 -12,23 -26,56 -4,7 -6,12 -8,15 0,1 -1,1 -1,1 -1,0 -2,0 -2,0 -12,-22 -18,-36 -21,-40 -4,-9 -8,-19 -15,-31 0,-1 -1,-1 -1,-1 -1,0 -1,1 -1,2 0,9 0,21 0,37l0 14c0,9 0,13 3,13l7 0c0,0 0,0 0,0l0 4c0,0 0,0 0,0l-26 0c-1,0 -1,0 -1,0l0 -3c0,-1 0,-1 1,-1l6 0c2,0 2,-2 2,-4 0,-3 1,-16 2,-38 0,-5 0,-14 1,-28 0,-6 -3,-11 -7,-14 -1,0 -4,0 -7,0 0,0 0,0 0,-1l0 -3c0,0 0,0 0,0l24 0c1,0 2,0 2,1 3,4 6,13 13,24 0,3 4,10 11,24 8,14 11,21 12,22 1,2 1,2 2,1 5,-11 10,-23 16,-35 6,-12 11,-24 17,-36 1,-1 2,-1 3,-1l19 0c0,0 1,0 1,0l0 4c0,0 -1,0 -1,0l-6 0c-1,0 -2,1 -3,4 0,4 0,15 0,33 0,14 0,25 0,32 1,10 2,15 5,15l6 0c1,0 1,0 1,0l0 4 0 0zm802 124c0,0 0,2 -2,6 0,0 -1,1 -3,4 0,1 -1,1 -1,1l-69 0c-1,0 -1,0 -1,-1l0 -2c0,0 0,-1 0,-1l9 0c1,0 2,0 2,-1 0,0 0,-2 0,-6 -1,-3 -1,-7 -1,-10 0,-4 0,-13 1,-27 0,-14 0,-23 0,-25 0,-9 -1,-15 -3,-15l-6 0c-1,0 -1,0 -1,-1l0 -3c0,0 0,-1 1,-1l39 0c0,0 0,0 0,1l0 3c0,1 0,1 0,1l-13 0c-1,0 -2,1 -2,1 0,1 0,12 0,33 0,20 0,32 0,34 0,11 0,16 3,16 11,0 19,0 25,0 6,-1 12,-3 20,-7 1,-1 2,-1 2,-1 0,0 0,0 0,1l0 0zm-134 10c0,1 0,1 0,1l-34 0c-1,0 -1,0 -1,-1l0 -2c0,0 1,-1 1,-1l8 0c1,0 1,0 1,-1 0,0 0,0 0,-1 0,-1 -2,-5 -4,-13 -3,-8 -5,-12 -5,-13 -1,0 -1,-1 -2,-1l-32 0c0,0 -1,1 -1,1 -2,6 -5,12 -6,17 -1,3 -2,6 -2,9 0,1 0,2 1,2l10 0c1,0 1,1 1,1l0 2c0,1 0,1 -1,1l-28 0c-1,0 -1,0 -1,-1l0 -2c0,0 0,-1 0,-1l6 0c1,0 2,-1 3,-4 6,-13 11,-25 17,-39 10,-24 16,-37 17,-40 2,-3 3,-5 4,-6 0,-2 1,-3 1,-3 2,0 5,-1 8,-2 1,0 1,0 1,0 1,0 1,0 1,1 0,0 0,1 0,1 0,1 0,1 0,1 0,0 0,1 -1,2 -1,1 -2,1 -2,2 0,1 1,3 2,6 0,3 2,9 6,19 1,2 4,9 9,24 5,13 8,23 12,30 3,5 4,8 5,8l5 0c1,0 1,1 1,1l0 2 0 0zm-37 -38c0,-2 -2,-8 -6,-18 -2,-5 -4,-11 -5,-16 -1,-2 -1,-3 -2,-3 -1,0 -1,1 -2,3 -2,4 -4,9 -5,14 -3,6 -6,13 -10,19 0,1 0,1 0,2 0,0 0,0 1,0l29 0c0,0 0,0 0,-1l0 0zm-112 -53c0,2 -1,7 -3,11 0,1 -1,1 -2,1 -1,0 -2,0 -2,-1 -1,-1 -2,-2 -4,-3 -2,-1 -6,-1 -12,-2 -6,0 -11,-1 -13,-1 -1,0 -1,1 -1,2 -1,11 -1,33 -1,63 0,11 1,18 4,18l11 0c0,0 0,0 0,1l0 2c0,1 0,1 0,1l-40 0c0,0 -1,0 -1,-1l0 -2c0,0 1,-1 1,-1l10 0c1,0 2,0 2,-1 0,-1 -1,-3 -1,-7 0,-5 0,-8 0,-9 0,-1 0,-8 1,-23 0,-15 0,-22 0,-23 0,-14 -1,-20 -3,-20 -10,0 -18,1 -25,3 -1,1 -3,2 -4,3 -2,1 -3,2 -4,2 -1,0 -2,0 -2,0 0,-1 0,-2 0,-3 1,-3 2,-7 4,-11 0,0 1,0 1,0 1,0 6,0 17,0 11,1 19,1 23,1 14,0 25,0 37,-1 1,0 3,0 4,0 1,0 2,0 2,0 0,0 1,0 1,1l0 0zm-147 92c0,0 0,0 -1,0l-34 0c-1,0 -1,0 -1,-1l0 -2c0,0 0,-1 1,-1l7 0c1,0 1,0 1,-2 0,0 0,-12 0,-35 0,-21 0,-33 0,-34 0,-8 -1,-13 -3,-13l-7 0c0,0 -1,0 -1,-1l0 -3c0,-1 0,-1 1,-1l35 0c0,0 0,0 0,1l0 4c0,0 0,0 0,0l-9 0c-1,0 -1,1 -1,1 0,1 0,11 0,31 0,20 0,31 0,33 0,6 0,10 0,11 0,5 1,8 3,8l8 0c1,0 1,0 1,1l0 3 0 0zm-100 -64c0,6 -3,12 -8,17 -5,5 -14,8 -24,8 -5,0 -10,0 -14,-2 -1,0 -1,1 -1,1l0 20c0,11 1,16 3,16l11 0c0,0 0,1 0,1l0 2c0,1 0,1 0,1l-40 0c-1,0 -1,0 -1,0l0 -3c0,0 1,-1 1,-1l10 0c0,0 0,0 0,-2l0 -68c0,-8 0,-13 -1,-13l-8 0c-1,0 -1,0 -1,0l0 -4c0,0 0,-1 0,-1l19 0c2,0 8,0 18,0 5,0 10,0 13,0 6,1 11,4 16,9 4,4 7,11 7,19l0 0zm-14 1c0,-6 -3,-11 -8,-17 -4,-4 -11,-7 -21,-7 -1,0 -2,0 -3,0 0,1 0,1 0,2 -1,3 -1,9 -1,20 0,1 0,3 0,10 0,5 0,8 0,9 0,0 0,1 1,1 3,1 7,2 11,2 7,0 12,-2 15,-5 4,-4 6,-9 6,-15zm-122 39c0,7 -3,12 -8,18 -3,3 -7,4 -10,5 -4,2 -10,2 -16,2 -9,0 -17,-2 -25,-6 -1,0 -1,-1 -1,-3 0,0 0,-3 0,-8 0,-6 0,-8 0,-8 0,-1 0,-1 1,-1l2 0c1,0 2,0 2,1 0,2 0,2 0,4 1,5 3,8 7,11 3,3 9,5 14,5 9,0 15,-3 18,-8 1,-3 2,-6 2,-10 0,-4 -1,-7 -4,-9 -2,-2 -7,-5 -14,-8 -8,-3 -15,-5 -20,-10 -5,-3 -7,-10 -7,-18 0,-8 3,-15 11,-20 4,-5 11,-6 20,-6 9,0 16,1 21,6 1,0 2,1 2,2 0,3 0,7 0,13 0,1 0,2 0,2l-3 0c0,0 -1,0 -1,-1 0,-1 -1,-3 -2,-5 -1,-3 -2,-5 -5,-6 -4,-3 -10,-5 -16,-5 -5,0 -9,1 -12,4 -3,3 -4,7 -4,12 0,3 1,7 4,9 2,2 7,5 16,8 5,2 10,4 11,5 5,2 9,5 11,7 4,5 6,10 6,18l0 0zm-125 -24c0,14 -3,25 -10,34 -5,6 -12,11 -20,12 -5,2 -11,3 -18,3 -10,0 -19,-2 -26,-4 -4,-2 -7,-5 -10,-8 -7,-8 -10,-19 -10,-34 0,-7 0,-12 2,-17 2,-7 5,-12 9,-17 5,-4 11,-8 19,-11 5,-2 11,-3 18,-3 10,0 17,1 23,3 6,3 11,7 14,11 6,8 9,18 9,31zm-15 4c0,-8 0,-13 -2,-18 -1,-5 -4,-10 -7,-14 -3,-4 -7,-6 -11,-8 -6,-3 -10,-4 -16,-4 -5,0 -10,1 -13,4 -5,2 -9,7 -10,12 -3,7 -5,14 -5,23 0,14 3,24 7,32 3,5 7,8 13,11 4,2 9,4 15,4 5,0 11,-2 15,-6 5,-3 7,-7 10,-14 3,-6 4,-13 4,-22l0 0zm-140 43c0,1 0,1 0,1l-42 0c0,0 -1,0 -1,-1l0 -2c0,0 1,-1 2,-1l10 0c1,0 2,0 2,-1 0,0 0,-2 0,-4 0,-5 0,-17 0,-36 0,-1 0,-2 -1,-2l-42 0c-1,0 -2,1 -2,2 0,14 1,23 1,26 0,10 1,15 3,15l11 0c1,0 1,1 1,1l0 2c0,1 0,1 -1,1l-40 0c-1,0 -1,0 -1,0 0,0 0,0 0,-1l0 -2c0,0 0,-1 1,-1l9 0c1,0 1,0 1,-1 0,0 0,-2 0,-4 0,-1 0,-7 0,-18 0,-12 0,-18 0,-19 0,-1 0,-6 0,-15 0,-9 0,-13 0,-13 0,-9 0,-14 -2,-14l-10 0c-1,0 -1,0 -1,-1l0 -3c0,0 0,-1 1,-1l41 0c1,0 1,1 1,1l0 3c0,1 0,1 -1,1l-11 0c-2,0 -2,1 -2,2 0,1 0,6 0,16 0,9 -1,15 -1,16 0,1 1,2 2,2l42 0c1,0 1,-1 1,-2 0,0 0,-4 0,-10 0,-8 0,-11 0,-12 0,-7 -1,-12 -3,-12l-11 0c-1,0 -1,0 -1,-1l0 -3c0,0 0,-1 1,-1l41 0c1,0 1,1 1,1l0 3c0,1 0,1 -1,1l-9 0c-2,0 -3,0 -3,1 0,0 0,1 0,2 0,0 0,12 0,36 0,18 0,29 0,32 0,8 1,13 3,13l11 0c0,0 0,1 0,1l0 2 0 0zm946 -367c0,1 0,1 0,1l-10 0c-1,0 -1,1 -1,2 0,0 0,6 -1,18 0,12 0,18 0,19 0,1 0,9 0,24 0,15 0,23 0,24 0,2 -1,3 -1,4 -2,0 -3,0 -4,-1 -13,-16 -25,-31 -39,-47 -6,-9 -14,-19 -24,-30 -1,0 -1,0 -1,0 0,1 0,9 -1,24 0,15 -1,25 -1,28 0,12 2,19 3,19l10 0c0,0 0,0 0,0l0 3c0,1 0,1 0,1l-29 0c-1,0 -1,0 -1,-1l0 -3c0,0 0,0 1,0l8 0c1,0 1,0 1,-1l0 -10c0,-3 1,-13 2,-32 1,-18 1,-28 1,-28 0,-9 -3,-13 -9,-13l-5 0c0,0 0,0 0,-1l0 -3c0,-1 0,-1 0,-1l24 0c1,0 2,0 2,1 1,1 5,7 13,16 7,10 12,15 12,16 10,11 20,24 30,35 1,0 1,0 1,0 0,0 1,0 1,-1 0,-1 0,-8 0,-21 0,-13 0,-20 0,-21 -1,-14 -2,-20 -5,-20l-8 0c-1,0 -1,0 -1,-1l0 -3c0,-1 0,-1 1,-1l31 0c0,0 0,0 0,1l0 3 0 0zm-117 88c0,1 0,1 -1,1l-33 0c0,0 0,0 0,-1l0 -3c0,-1 0,-1 0,-1l9 0c1,0 1,0 1,0 0,-1 0,-1 0,-1 0,-1 -2,-6 -5,-13 -3,-8 -5,-13 -5,-13 0,-2 0,-2 -1,-2l-33 0c-1,0 -1,0 -1,1 -3,7 -5,12 -5,18 -2,3 -2,6 -3,9 0,1 1,1 2,1l10 0c1,0 1,0 1,1l0 3c0,1 0,1 -1,1l-29 0c0,0 -1,0 -1,-1l0 -3c0,-1 1,-1 1,-1l5 0c1,0 2,0 4,-3 4,-13 10,-26 16,-39 10,-24 16,-38 17,-40 2,-3 3,-5 3,-7 1,-1 2,-2 2,-2 3,0 5,-1 8,-2 1,0 1,0 1,0 1,0 1,0 1,0 1,1 1,1 1,2 0,0 -1,1 -1,1 0,0 -1,0 -1,1 -1,1 -2,2 -2,3 0,1 1,3 1,6 1,2 4,9 7,19 0,1 4,9 8,23 6,14 10,24 13,31 3,5 5,7 6,7l4 0c1,0 1,0 1,1l0 3 0 0zm-37 -38c0,-2 -3,-8 -7,-18 -1,-6 -2,-11 -4,-17 -1,-1 -2,-2 -2,-2 -1,0 -2,1 -2,2 -2,4 -3,9 -6,14 -2,6 -6,13 -8,20 0,1 0,1 0,1 0,1 0,1 0,1l29 0c1,0 1,-1 0,-1l0 0zm-74 -9c0,13 -3,24 -11,33 -4,6 -12,11 -20,13 -4,2 -11,3 -17,3 -11,0 -19,-2 -26,-5 -4,-1 -8,-4 -10,-8 -8,-7 -11,-19 -11,-33 0,-7 1,-12 2,-18 2,-6 6,-12 10,-16 5,-6 10,-9 18,-12 5,-2 12,-3 18,-3 10,0 18,1 24,4 6,3 10,6 14,11 6,8 9,18 9,31l0 0zm-15 3c0,-7 -1,-13 -2,-17 -2,-5 -5,-10 -8,-14 -3,-4 -7,-7 -11,-9 -5,-2 -10,-3 -15,-3 -6,0 -11,1 -13,3 -6,3 -9,8 -11,13 -3,7 -4,14 -4,23 0,13 2,24 6,32 3,4 8,8 13,11 5,1 9,2 15,2 5,0 11,-1 16,-4 4,-3 7,-7 10,-15 2,-5 4,-12 4,-22l0 0zm-94 33c0,1 -1,3 -3,6 0,0 -1,2 -2,4 0,1 0,2 -1,2l-69 0c-1,0 -1,0 -1,-1l0 -3c0,-1 0,-1 1,-1l9 0c1,0 1,0 1,-1 0,1 0,-1 0,-6 0,-3 0,-6 0,-9 0,-4 0,-14 0,-27 0,-15 0,-23 0,-26 0,-10 -1,-14 -3,-14l-7 0c0,0 0,0 0,-1l0 -3c0,-1 0,-1 0,-1l40 0c0,0 0,0 0,1l0 3c0,1 0,1 0,1l-13 0c-1,0 -1,0 -2,1 0,1 0,12 0,32 0,20 -1,31 -1,35 0,10 2,16 4,16 11,0 20,0 25,-1 7,0 13,-3 19,-7 1,0 2,-1 2,-1 1,1 1,1 1,1l0 0zm-96 -13c0,7 -3,13 -9,19 -2,2 -6,4 -10,5 -3,1 -8,2 -14,2 -9,0 -18,-2 -27,-6 0,0 0,-1 0,-3 0,0 0,-3 0,-8 0,-6 0,-9 0,-9 0,0 0,0 1,0l3 0c1,0 1,0 1,0 0,1 0,3 1,5 0,4 3,7 6,11 4,3 9,4 15,4 8,0 14,-2 17,-8 2,-2 2,-6 2,-10 0,-3 -1,-6 -4,-9 -2,-3 -7,-4 -14,-7 -8,-3 -15,-6 -19,-10 -6,-5 -8,-11 -8,-19 0,-7 4,-14 10,-19 6,-5 12,-7 21,-7 9,0 17,2 22,6 0,1 1,2 1,2 1,3 1,8 1,14 0,1 0,2 -1,2l-4 0c0,0 0,-1 0,-1 0,-2 0,-4 -1,-5 -1,-3 -3,-6 -6,-8 -3,-2 -9,-3 -16,-3 -5,0 -8,1 -11,3 -4,4 -5,8 -5,12 0,4 1,7 5,10 1,1 6,4 15,7 6,3 9,4 12,6 4,2 7,4 10,7 4,4 6,10 6,17l0 0zm-122 -14c1,0 -1,0 -6,0 -3,0 -8,0 -12,0 0,5 0,12 0,17 0,1 -1,1 -4,1 -3,0 -5,0 -5,-1 0,-5 0,-12 0,-17 -3,0 -7,0 -11,0 -5,0 -7,0 -7,0 -1,0 -2,-1 -2,-3 0,-1 1,-2 1,-3 1,-1 1,-2 2,-2 6,0 12,0 17,0 0,-4 1,-8 1,-12 0,-4 0,-6 0,-6 0,0 1,0 3,0 1,0 2,0 4,0 1,0 1,0 1,1 0,6 0,11 0,17 6,0 12,0 17,1 2,0 2,1 2,3 0,3 0,4 -1,4zm-99 -50c0,1 0,1 0,1l-5 0c-1,0 -3,1 -4,3 -3,5 -7,11 -12,20 -4,6 -9,12 -13,20 0,0 0,1 0,2 0,0 0,5 -1,12 0,8 0,13 0,14 0,8 1,13 3,13l10 0c1,0 1,0 1,0 0,0 0,0 0,0l0 3c0,1 0,1 0,1l-39 0c-1,0 -1,0 -1,-1l0 -3c0,0 0,0 1,0l9 0c1,0 1,-1 1,-2 0,0 0,-7 0,-18 0,-11 0,-18 0,-18 0,-2 0,-3 0,-3 -2,-2 -7,-9 -13,-20 -4,-6 -8,-13 -14,-20 -2,-2 -3,-3 -6,-3l-1 0c-1,0 -1,0 -1,0 0,0 0,-1 0,-1l0 -3c0,-1 0,-1 1,-1l32 0c1,0 1,0 1,1l0 3c0,1 0,1 -1,1l-6 0c-2,0 -2,0 -2,1 0,1 0,2 0,3 4,5 7,10 11,17 3,4 6,10 10,16 0,1 1,1 1,0 7,-8 12,-16 16,-24 2,-5 3,-9 3,-11 0,-1 0,-2 -1,-2l-6 0c-1,0 -1,0 -1,-1l0 -3c0,-1 0,-1 1,-1l26 0c0,0 0,0 0,1l0 3 0 0zm-96 77c-2,4 -4,8 -6,11 -1,1 -1,1 -2,1l-68 0c0,0 -1,0 -1,-1l0 -3c0,-1 1,-1 1,-1l11 0c0,0 1,0 1,0 0,0 0,0 0,-1 0,0 0,-8 0,-20 0,-14 0,-20 0,-21 0,0 0,-5 0,-14 0,-8 0,-13 0,-14 0,-9 -1,-13 -3,-13l-9 0c0,0 -1,0 -1,-1l0 -3c0,0 0,-1 1,-1 0,0 0,0 0,0l64 0c1,0 2,0 4,0 2,0 3,0 2,0 1,0 1,0 1,0 -1,4 -2,8 -3,11 -1,1 -1,1 -2,1 0,0 0,0 -1,-1 -2,-2 -4,-3 -8,-3 -10,-2 -20,-3 -30,-3 -1,0 -1,0 -1,1 0,15 0,26 0,33 0,1 0,1 1,1l30 0c1,0 1,0 1,-1 1,-1 1,-4 1,-8 0,-1 1,-1 1,-1l2 0c1,0 2,0 2,1 0,0 -1,3 -1,7 0,2 0,5 0,6 0,0 0,3 0,6 0,5 0,7 0,8 0,0 0,0 -1,0l-2 0c-1,0 -1,0 -1,0 0,-2 0,-6 -1,-10 0,-1 0,-2 -1,-2 -1,0 -5,0 -15,0 -10,0 -15,0 -15,0 -1,0 -1,0 -1,1l0 26c0,10 1,15 4,15 19,0 33,-1 42,-7 2,-1 3,-1 3,-1 0,0 0,0 0,0 1,0 1,1 1,1l0 0zm-93 11c0,1 0,1 0,1l-24 0c-1,0 -2,0 -3,-1 -3,-2 -8,-9 -17,-22 -5,-5 -8,-11 -12,-18 0,-1 0,-1 -1,-1 -3,0 -5,0 -9,-1 -1,0 -1,0 -1,1 0,-1 0,2 0,7 0,5 0,10 0,16 0,10 1,14 3,14l12 0c0,0 0,0 0,1l0 3c0,1 0,1 0,1l-39 0c-1,0 -1,0 -1,-1l0 -3c0,-1 0,-1 1,-1l9 0c0,0 0,0 0,-1l0 -37c0,-18 0,-26 0,-26 0,-13 0,-19 -2,-19l-8 0c0,0 0,0 0,0l0 -4c0,0 0,-1 0,-1l21 0c8,0 13,-1 17,-1 3,0 7,1 10,1 6,1 12,4 16,8 6,4 7,10 7,16 0,7 -1,13 -7,18 -3,3 -7,5 -13,7 -1,0 -1,0 -1,1 5,8 10,14 15,19 4,5 7,8 8,9 3,3 6,6 8,7 3,3 7,4 10,4 1,0 1,0 1,0l0 3 0 0zm-35 -64c0,-7 -2,-12 -7,-16 -5,-4 -12,-7 -22,-7 -2,0 -3,0 -3,1 0,12 0,21 -1,24 0,0 0,5 0,15 0,0 1,1 2,1 1,0 4,0 7,0 5,0 8,0 10,-1 9,-3 14,-8 14,-17l0 0zm-72 24c0,1 -1,1 -1,1l-9 0c0,0 -1,0 -1,1 0,0 0,2 0,5 0,4 0,7 0,10 0,7 0,11 0,14 0,1 0,1 -1,1 -2,1 -4,3 -8,4 -11,4 -21,6 -29,6 -9,0 -16,-1 -23,-4 -7,-2 -13,-7 -18,-13 -5,-7 -7,-16 -7,-28 0,-12 3,-23 12,-32 6,-8 14,-12 26,-16 5,-1 12,-2 20,-2 8,0 15,1 21,3 3,1 6,2 7,3 1,0 1,0 1,1 0,2 -1,4 -1,8 -1,3 -2,5 -2,9 -1,0 -1,0 -1,0 -1,0 -1,0 -1,0 0,-1 0,-2 -1,-5 0,-2 -2,-4 -4,-5 -6,-5 -15,-8 -26,-8 -10,0 -19,3 -27,13 -5,6 -9,16 -9,29 0,13 4,24 11,31 7,7 16,11 29,11 7,0 13,-2 16,-7 1,0 1,-1 1,-2l0 -10c0,-4 0,-7 0,-9 -1,-5 -1,-8 -2,-8l-14 0c-1,0 -1,0 -1,-1l0 -3c0,0 0,-1 1,-1 0,0 3,0 9,0 7,0 10,0 11,0 1,0 4,0 10,0 6,0 9,0 9,0 1,0 2,0 2,1l0 3 0 0zm-382 195l0 -128 7 0 0 128 -7 0zm16 -128l7 0 0 128 -7 0 0 -128zm15 0l5 0 0 128 -5 0 0 -128zm21 0l6 0 0 128 -6 0 0 -128zm13 0l7 0 0 128 -7 0 0 -128zm18 0l7 0 0 128 -7 0 0 -128zm13 0l10 0 0 128 -10 0 0 -128zm18 0l8 0 0 128 -8 0 0 -128zm16 -126l10 0 0 380 -10 0 0 -380zm16 0l10 0 0 380 -10 0 0 -380zm17 0l9 0 0 380 -9 0 0 -380zm16 0l8 0 0 380 -8 0 0 -380zm17 0l10 0 0 380 -10 0 0 -380zm16 0l11 0 0 380 -11 0 0 -380zm15 0l27 0 0 126 126 0 0 128 -126 0 0 126 -27 0 0 -380 0 0zm1105 233c0,1 0,3 -2,5 0,0 -1,2 -3,5 0,1 -1,1 -1,1l-69 0c-1,0 -1,0 -1,0l0 -4c0,0 0,0 0,0l9 0c1,0 2,-1 2,-2 0,0 0,-2 0,-5 -1,-4 -1,-7 -1,-10 0,-4 0,-13 1,-27 0,-14 0,-23 0,-25 0,-10 -1,-15 -3,-15l-6 0c-1,0 -1,0 -1,0l0 -3c0,-1 0,-1 1,-1l39 0c0,0 0,0 0,0l0 4c0,0 0,0 0,0l-13 0c-1,0 -2,0 -2,1 0,0 0,11 0,33 0,19 0,31 0,34 0,11 0,16 3,16 11,0 19,-1 25,-1 6,-1 12,-3 20,-6 1,-1 2,-1 2,-1 0,0 0,1 0,1l0 0zm-103 11c0,0 -1,0 -1,0l-34 0c0,0 0,0 0,0l0 -3c0,-1 0,-1 1,-1l8 0c1,0 1,-1 1,-2 0,0 0,0 0,0 -1,-1 -2,-5 -4,-13 -3,-8 -5,-12 -6,-13 0,-1 0,-1 -1,-1l-32 0c-1,0 -1,0 -1,1 -3,6 -5,12 -6,17 -2,3 -2,6 -3,8 0,2 1,3 2,3l10 0c1,0 1,0 1,1l0 3c0,0 0,0 -1,0l-29 0c0,0 -1,0 -1,0l0 -4c0,0 1,0 1,0l6 0c1,0 1,-2 2,-4 6,-13 11,-26 18,-39 10,-24 16,-37 17,-41 1,-1 3,-4 3,-6 1,-2 1,-2 1,-3 3,0 6,-1 9,-1 1,0 1,0 1,0 0,0 0,0 0,0 1,0 1,1 1,1 -1,1 -1,1 -1,1 0,1 0,1 -1,2 -1,2 -1,3 -1,4 0,1 0,2 1,4 1,4 2,10 7,19 0,2 4,10 8,25 5,13 9,23 13,30 2,5 3,8 5,8l5 0c0,0 1,0 1,1l0 3 0 0zm-38 -39c0,-2 -2,-8 -6,-19 -2,-4 -4,-10 -5,-16 0,-1 -1,-2 -1,-2 -1,0 -2,1 -2,2 -2,5 -4,9 -6,15 -3,6 -6,12 -9,20 0,0 0,1 0,1 0,0 0,0 0,0l29 0c0,0 1,0 0,-1l0 0zm-85 39c0,0 -1,0 -1,0l-34 0c-1,0 -2,0 -2,0l0 -3c0,-1 1,-1 1,-1l8 0c1,0 1,-1 1,-3 0,0 0,-11 0,-33 0,-23 0,-35 0,-35 0,-9 -1,-13 -3,-13l-7 0c-1,0 -1,0 -1,0l0 -4c0,0 0,0 1,0l34 0c1,0 1,0 1,0l0 4c0,0 0,0 -1,0l-8 0c-1,0 -1,0 -1,1 0,0 0,10 0,30 0,21 0,32 0,33 0,6 0,10 0,12 0,5 1,8 3,8l8 0c0,0 1,0 1,0l0 4 0 0zm-66 0c0,0 -1,0 -1,0l-25 0c-1,0 -2,0 -3,0 -1,-3 -8,-10 -17,-22 -4,-6 -8,-12 -12,-18 0,-1 0,-1 -1,-1 -1,-1 -5,-1 -9,-1 -1,0 -1,0 -1,1 0,-1 0,1 0,6 0,5 0,10 0,16 0,10 1,15 3,15l12 0c0,0 1,0 1,0l0 4c0,0 -1,0 -1,0l-38 0c-1,0 -1,0 -1,0l0 -3c0,-1 0,-1 1,-1l8 0c1,0 1,-1 1,-3l0 -36c0,-17 0,-26 0,-26 0,-12 -1,-19 -3,-19l-7 0c-1,0 -1,0 -1,0l0 -3c0,-1 0,-1 1,-1l21 -1c7,0 12,0 16,0 4,0 7,0 10,1 6,1 12,3 16,6 6,5 8,10 8,17 0,7 -2,13 -8,18 -2,3 -7,5 -12,7 -1,1 -1,1 -1,1 4,7 9,14 14,20 5,5 8,7 9,8 3,4 5,6 8,7 2,2 6,4 10,4 1,0 2,0 2,1l0 3 0 0zm-37 -66c0,-6 -2,-11 -6,-14 -5,-6 -13,-8 -23,-8 -2,0 -3,0 -3,1 0,13 0,20 0,24 0,0 0,5 0,15 0,0 0,0 1,0 2,1 4,1 8,1 4,0 8,-1 10,-1 9,-2 13,-9 13,-18l0 0zm-88 18c0,13 -4,25 -11,33 -4,7 -12,11 -20,14 -5,2 -11,2 -17,2 -11,0 -20,-1 -27,-5 -3,-2 -7,-4 -10,-7 -7,-8 -11,-19 -11,-35 0,-5 1,-12 3,-17 2,-6 6,-12 10,-16 4,-5 10,-9 17,-11 6,-2 12,-3 19,-3 10,0 17,1 23,4 7,2 11,5 15,10 5,8 9,18 9,31l0 0zm-15 3c0,-7 -1,-13 -3,-17 -1,-5 -4,-10 -7,-15 -3,-3 -7,-6 -11,-8 -5,-2 -10,-3 -15,-3 -6,0 -11,1 -15,3 -4,3 -8,7 -10,13 -2,6 -4,14 -4,23 0,13 3,24 7,31 3,5 7,9 13,11 4,3 9,4 15,4 5,0 10,-2 16,-5 4,-3 6,-8 10,-14 2,-6 4,-14 4,-23l0 0zm-112 45c0,0 -1,0 -1,0l-33 0c-1,0 -1,0 -1,0l0 -4c0,0 0,0 0,0l6 0c1,0 2,-1 2,-2l0 -34c0,-14 0,-24 -1,-29 0,-2 0,-2 0,-2 -1,0 -1,0 -1,1 -2,4 -11,23 -26,56 -4,7 -5,12 -7,15 0,1 -1,1 -2,1 -1,0 -2,0 -3,0 -11,-22 -18,-36 -20,-40 -3,-9 -9,-19 -14,-31 -1,-1 -1,-1 -1,-1 -1,0 -1,1 -1,2 -1,9 -1,21 -1,37l0 14c0,9 1,13 3,13l7 0c1,0 1,0 1,0l0 4c0,0 0,0 -1,0l-26 0c0,0 0,0 0,0l0 -3c0,-1 0,-1 0,-1l7 0c2,0 2,-2 2,-4 0,-3 1,-16 1,-38 1,-5 1,-14 1,-28 0,-6 -2,-11 -7,-14 -1,0 -4,0 -6,0 0,0 0,0 0,-1l0 -3c0,0 0,0 0,0l23 0c1,0 2,0 2,1 3,4 7,13 13,24 1,3 5,10 12,24 7,14 11,21 12,22 1,2 1,2 1,1 5,-11 10,-23 17,-35 5,-12 11,-24 16,-36 1,-1 2,-1 3,-1l18 0c1,0 1,0 1,0l0 4c0,0 0,0 0,0l-5 0c-2,0 -2,1 -3,4 0,4 0,15 0,33 0,14 0,25 0,32 1,10 2,15 4,15l7 0c0,0 1,0 1,0l0 4 0 0zm-150 -12c-1,4 -3,7 -6,12 0,0 -1,0 -2,0l-67 0c-1,0 -1,0 -1,0l0 -4c0,0 0,0 0,0l11 0c1,0 1,-1 1,-1 1,0 1,0 1,-1 0,0 0,-7 0,-21 -1,-12 -1,-20 -1,-20 0,-1 0,-5 0,-13 0,-9 0,-14 0,-14 0,-9 -1,-14 -3,-14l-8 0c-1,0 -1,0 -1,0l0 -4c0,0 0,0 0,0 0,0 0,0 1,0l64 0c1,0 2,0 3,-1 2,0 3,0 3,0 1,0 1,1 1,1 -1,3 -2,6 -4,10 0,1 -1,2 -1,2 0,0 -1,-1 -1,-1 -2,-2 -5,-4 -9,-5 -9,-1 -19,-2 -30,-2 0,0 -1,0 -1,0 0,17 0,28 0,34 0,1 0,2 1,2l30 0c1,0 1,0 2,-1 0,-3 0,-5 1,-8 0,-1 0,-2 1,-2l3 0c1,0 1,1 1,2 0,0 0,2 0,5 -1,4 -1,6 -1,7 0,1 0,3 1,7 0,4 0,6 0,6 0,1 -1,2 -1,2l-4 0c0,0 0,0 0,-1 0,-2 -1,-5 -1,-11 0,-1 -1,-1 -2,-1 0,0 -5,0 -14,0 -10,-1 -16,-1 -16,-1 -1,0 -1,1 -1,2l0 26c0,11 1,16 4,16 20,0 34,-3 43,-7 2,-1 3,-2 3,-2 0,0 0,0 0,1 0,0 0,0 0,0l0 0z"/>
 </g>
</svg>
